<mxfile host="app.diagrams.net" modified="2022-06-07T03:45:20.785Z" agent="5.0 (Windows NT 10.0; Win64; x64) AppleWebKit/537.36 (KHTML, like Gecko) Chrome/102.0.5005.63 Safari/537.36" version="19.0.1" etag="f58hlmSrYt3AR4O4RJUp" type="github" pages="2">
  <diagram name="聚合" id="b5b7bab2-c9e2-2cf4-8b2a-24fd1a2a6d21">
    <mxGraphModel dx="1422" dy="762" grid="1" gridSize="10" guides="1" tooltips="1" connect="1" arrows="1" fold="1" page="1" pageScale="1" pageWidth="827" pageHeight="1169" background="none" math="0" shadow="0">
      <root>
        <mxCell id="0" />
        <mxCell id="1" parent="0" />
        <mxCell id="ssphG-h_OjZj8CNA2_JD-2" value="公司" style="swimlane;fontStyle=0;childLayout=stackLayout;horizontal=1;startSize=20;fillColor=none;horizontalStack=0;resizeParent=1;resizeParentMax=0;resizeLast=0;collapsible=1;marginBottom=0;" vertex="1" parent="1">
          <mxGeometry x="330" y="30" width="140" height="52" as="geometry" />
        </mxCell>
        <mxCell id="ssphG-h_OjZj8CNA2_JD-3" value="部門1" style="swimlane;fontStyle=0;childLayout=stackLayout;horizontal=1;startSize=26;fillColor=none;horizontalStack=0;resizeParent=1;resizeParentMax=0;resizeLast=0;collapsible=1;marginBottom=0;" vertex="1" parent="1">
          <mxGeometry x="140" y="290" width="140" height="52" as="geometry" />
        </mxCell>
        <mxCell id="ssphG-h_OjZj8CNA2_JD-4" value="部門2" style="swimlane;fontStyle=0;childLayout=stackLayout;horizontal=1;startSize=26;fillColor=none;horizontalStack=0;resizeParent=1;resizeParentMax=0;resizeLast=0;collapsible=1;marginBottom=0;" vertex="1" parent="1">
          <mxGeometry x="520" y="290" width="140" height="52" as="geometry" />
        </mxCell>
        <mxCell id="ssphG-h_OjZj8CNA2_JD-5" value="" style="endArrow=diamondThin;endFill=0;endSize=24;html=1;rounded=0;exitX=0.5;exitY=0;exitDx=0;exitDy=0;entryX=0.25;entryY=1;entryDx=0;entryDy=0;" edge="1" parent="1" source="ssphG-h_OjZj8CNA2_JD-3" target="ssphG-h_OjZj8CNA2_JD-2">
          <mxGeometry width="160" relative="1" as="geometry">
            <mxPoint x="330" y="210" as="sourcePoint" />
            <mxPoint x="490" y="210" as="targetPoint" />
          </mxGeometry>
        </mxCell>
        <mxCell id="ssphG-h_OjZj8CNA2_JD-6" value="" style="endArrow=diamondThin;endFill=0;endSize=24;html=1;rounded=0;exitX=0.5;exitY=0;exitDx=0;exitDy=0;entryX=0.75;entryY=1;entryDx=0;entryDy=0;" edge="1" parent="1" source="ssphG-h_OjZj8CNA2_JD-4" target="ssphG-h_OjZj8CNA2_JD-2">
          <mxGeometry width="160" relative="1" as="geometry">
            <mxPoint x="330" y="210" as="sourcePoint" />
            <mxPoint x="490" y="210" as="targetPoint" />
          </mxGeometry>
        </mxCell>
      </root>
    </mxGraphModel>
  </diagram>
  <diagram id="y57ESgfZo5Q0gPeMH4wc" name="組合">
    <mxGraphModel dx="1422" dy="762" grid="1" gridSize="10" guides="1" tooltips="1" connect="1" arrows="1" fold="1" page="1" pageScale="1" pageWidth="827" pageHeight="1169" math="0" shadow="0">
      <root>
        <mxCell id="CHDtnuDMMGn6DQg8g9th-0" />
        <mxCell id="CHDtnuDMMGn6DQg8g9th-1" parent="CHDtnuDMMGn6DQg8g9th-0" />
      </root>
    </mxGraphModel>
  </diagram>
</mxfile>
